<?xml version="1.0" encoding="utf-8"?>
<!-- Generator: Adobe Illustrator 13.0.2, SVG Export Plug-In . SVG Version: 6.00 Build 14948)  -->
<!DOCTYPE svg PUBLIC "-//W3C//DTD SVG 1.1//EN" "http://www.w3.org/Graphics/SVG/1.1/DTD/svg11.dtd">
<svg version="1.1" id="Layer_1" xmlns="http://www.w3.org/2000/svg" xmlns:xlink="http://www.w3.org/1999/xlink" x="0px" y="0px"
	 width="226.772px" height="70.866px" viewBox="0 0 226.772 70.866" enable-background="new 0 0 226.772 70.866"
	 xml:space="preserve">
<polygon points="1,49.895 22.246,24.277 1.332,24.277 1.332,22.672 24.404,22.672 24.404,24.223 3.269,49.839 24.238,49.839 
	24.238,51.443 1,51.443 "/>
<path d="M30.324,11.054h1.881v4.647h-1.881V11.054z M30.324,22.672h1.881v28.771h-1.881V22.672z"/>
<g>
	<defs>
		<rect id="SVGID_1_" width="226.772" height="70.866"/>
	</defs>
	<clipPath id="SVGID_2_">
		<use xlink:href="#SVGID_1_"  overflow="visible"/>
	</clipPath>
	<path clip-path="url(#SVGID_2_)" d="M82.553,51.443h-1.881V35.397c0-3.909-0.601-6.786-1.799-8.63
		C77.674,24.922,75.839,24,73.368,24c-1.292,0-2.509,0.241-3.651,0.719c-1.144,0.481-2.177,1.135-3.099,1.965
		c-0.922,0.829-1.734,1.835-2.434,3.015c-0.702,1.181-1.236,2.453-1.605,3.817v17.927h-1.881V35.397
		c0-3.946-0.581-6.832-1.743-8.658C57.793,24.913,55.958,24,53.45,24c-2.545,0-4.777,0.867-6.694,2.601
		c-1.918,1.734-3.284,4.021-4.095,6.861v17.981H40.78V22.672h1.826v7.192c1.218-2.434,2.784-4.315,4.703-5.642
		c1.917-1.328,4.039-1.992,6.363-1.992c2.434,0,4.416,0.738,5.947,2.213c1.531,1.476,2.443,3.431,2.739,5.865
		c2.84-5.386,6.639-8.078,11.397-8.078c3.062,0,5.293,1.098,6.695,3.292c1.401,2.195,2.103,5.413,2.103,9.654V51.443z"/>
	<path clip-path="url(#SVGID_2_)" d="M132.512,51.443h-1.879V35.397c0-3.909-0.602-6.786-1.801-8.63
		C127.637,24.922,125.797,24,123.33,24c-1.291,0-2.51,0.241-3.652,0.719c-1.146,0.481-2.178,1.135-3.1,1.965
		c-0.922,0.829-1.734,1.835-2.434,3.015c-0.703,1.181-1.237,2.453-1.606,3.817v17.927h-1.881V35.397
		c0-3.946-0.581-6.832-1.743-8.658C107.754,24.913,105.919,24,103.41,24c-2.544,0-4.777,0.867-6.694,2.601
		c-1.918,1.734-3.284,4.021-4.095,6.861v17.981h-1.88V22.672h1.825v7.192c1.217-2.434,2.785-4.315,4.703-5.642
		c1.918-1.328,4.039-1.992,6.363-1.992c2.434,0,4.416,0.738,5.948,2.213c1.53,1.476,2.443,3.431,2.738,5.865
		c2.839-5.386,6.639-8.078,11.397-8.078c3.061,0,5.295,1.098,6.695,3.292c1.402,2.195,2.102,5.413,2.102,9.654V51.443z"/>
	<path clip-path="url(#SVGID_2_)" d="M152.651,51.997c-1.956,0-3.782-0.397-5.478-1.19c-1.697-0.792-3.182-1.881-4.453-3.264
		c-1.273-1.385-2.27-2.988-2.988-4.814s-1.078-3.771-1.078-5.837c0-2.027,0.35-3.928,1.051-5.698
		c0.699-1.77,1.678-3.319,2.932-4.648c1.254-1.328,2.711-2.378,4.371-3.154c1.66-0.774,3.467-1.161,5.422-1.161
		c1.992,0,3.836,0.387,5.533,1.161c1.695,0.776,3.172,1.836,4.426,3.182c1.254,1.347,2.24,2.924,2.961,4.731
		c0.719,1.807,1.078,3.726,1.078,5.754v0.442c0,0.221-0.018,0.35-0.055,0.387H140.59c0.148,1.77,0.562,3.422,1.244,4.951
		c0.684,1.532,1.568,2.85,2.656,3.957c1.088,1.106,2.342,1.982,3.762,2.628s2.924,0.969,4.51,0.969c1.031,0,2.056-0.14,3.07-0.416
		c1.016-0.277,1.965-0.672,2.85-1.19c0.886-0.516,1.66-1.133,2.324-1.853s1.197-1.503,1.605-2.351l1.715,0.441
		c-0.406,0.997-0.998,1.929-1.771,2.794c-0.775,0.868-1.688,1.605-2.737,2.213c-1.054,0.609-2.187,1.089-3.403,1.438
		C155.197,51.821,153.942,51.997,152.651,51.997 M164.547,36.283c-0.111-1.807-0.498-3.467-1.162-4.979s-1.539-2.822-2.629-3.929
		c-1.088-1.107-2.334-1.964-3.732-2.572c-1.404-0.609-2.916-0.913-4.539-0.913s-3.135,0.314-4.535,0.94
		c-1.404,0.628-2.629,1.494-3.68,2.6c-1.051,1.107-1.9,2.416-2.545,3.929c-0.646,1.512-1.023,3.153-1.135,4.924H164.547z"/>
	<path clip-path="url(#SVGID_2_)" d="M185.186,24.443c-2.658,0.111-4.963,0.95-6.918,2.518s-3.32,3.698-4.094,6.39v18.092h-1.881
		V22.672h1.826v7.304c0.996-2.028,2.322-3.688,3.982-4.979c1.662-1.291,3.432-2.048,5.312-2.269
		c0.367-0.036,0.708-0.056,1.021-0.056h0.75V24.443z"/>
	<polygon clip-path="url(#SVGID_2_)" points="218.914,12.384 189.48,12.384 189.48,8.917 224.816,8.917 198.186,61.293 
		193.98,61.293 	"/>
</g>
</svg>
